<svg width="30" height="28" viewBox="0 0 30 28" fill="none" xmlns="http://www.w3.org/2000/svg">
<path d="M8.22358 13.9004C8.15958 15.0076 9.01561 15.9556 10.1276 16.0193C10.1676 16.0193 10.2076 16.0193 10.2476 16.0193C11.3677 16.0193 12.2717 15.1192 12.2637 14.004C12.2637 12.8888 11.3597 11.9887 10.2396 11.9966C9.16761 11.9966 8.27958 12.833 8.22358 13.9004Z" fill="#040617"/>
<path d="M0.687471 13.3827C0.32746 13.3588 0.0154508 13.6376 -0.000549666 13.996C-0.0165501 14.3545 0.255458 14.6651 0.615469 14.6811C0.975479 14.705 1.27949 14.4262 1.30349 14.0677C1.32749 13.7093 1.04748 13.4066 0.687471 13.3827Z" fill="#040617"/>
<path d="M8.09564 2.22285C8.41565 2.06354 8.54365 1.66526 8.38365 1.34663C8.22364 1.02801 7.82363 0.900557 7.50362 1.05987C7.18361 1.21918 7.05561 1.6095 7.21561 1.92812C7.37562 2.25471 7.76763 2.39013 8.09564 2.22285Z" fill="#040617"/>
<path d="M10.1438 5.78347C10.6398 5.53654 10.8398 4.93115 10.5918 4.43728C10.3438 3.94341 9.73577 3.74427 9.23976 3.99121C8.74374 4.23814 8.54374 4.84353 8.79174 5.3374C9.03975 5.83126 9.64777 6.0304 10.1438 5.78347Z" fill="#040617"/>
<path d="M3.24755 8.22892C3.63156 8.47586 4.14357 8.37231 4.39958 7.98996C4.64759 7.60761 4.54359 7.09781 4.15958 6.84291C3.77556 6.59598 3.26355 6.69953 3.00754 7.08188C2.75153 7.46423 2.86354 7.98199 3.24755 8.22892Z" fill="#040617"/>
<path d="M4.47149 13.0242C3.91148 12.9924 3.43946 13.4145 3.40746 13.9721C3.37546 14.5297 3.79947 14.9997 4.35949 15.0315C4.91951 15.0634 5.39152 14.6412 5.42352 14.0836C5.45552 13.534 5.03151 13.0561 4.47149 13.0242Z" fill="#040617"/>
<path d="M3.35953 19.7711C2.95152 19.9782 2.78351 20.4721 2.99152 20.8863C3.19952 21.2925 3.69554 21.4598 4.11155 21.2527C4.51956 21.0456 4.68757 20.5517 4.47956 20.1375C4.27156 19.7313 3.76754 19.564 3.35953 19.7711Z" fill="#040617"/>
<path d="M7.27975 10.9452C7.83177 11.3036 8.56779 11.1523 8.9198 10.6027C9.27981 10.053 9.12781 9.3202 8.57579 8.96972C8.02378 8.61126 7.28775 8.76261 6.93574 9.31224C6.57573 9.8539 6.72774 10.5867 7.27975 10.9452Z" fill="#040617"/>
<path d="M19.7202 5.70382C20.1842 6.00651 20.8162 5.87906 21.1202 5.41706C21.4243 4.95505 21.2963 4.32577 20.8322 4.02308C20.3682 3.72038 19.7362 3.84783 19.4322 4.30984C19.1202 4.77981 19.2482 5.40113 19.7202 5.70382Z" fill="#040617"/>
<path d="M21.7841 2.15912C22.0881 2.35826 22.4881 2.27064 22.6881 1.96795C22.8881 1.66525 22.8001 1.26697 22.4961 1.06783C22.1921 0.868693 21.7921 0.956315 21.5921 1.25104C21.4001 1.55374 21.4881 1.95998 21.7841 2.15912Z" fill="#040617"/>
<path d="M19.8722 11.9807C18.7601 11.917 17.8001 12.7693 17.7441 13.8765C17.6801 14.9838 18.5361 15.9396 19.6481 15.9954C19.6881 15.9954 19.7281 15.9954 19.7602 15.9954C20.8722 15.9954 21.7762 15.0953 21.7762 13.9801C21.7842 12.9207 20.9442 12.0365 19.8722 11.9807Z" fill="#040617"/>
<path d="M10.8077 10.8018C11.1517 11.4789 11.8477 11.909 12.6157 11.909C13.7278 11.909 14.6318 11.0089 14.6318 9.89374C14.6318 9.58308 14.5598 9.27242 14.4158 8.98566C13.9118 7.98996 12.6957 7.59168 11.7037 8.09351C10.7037 8.60331 10.3037 9.81408 10.8077 10.8018Z" fill="#040617"/>
<path d="M26.6402 8.22892C27.0482 8.02181 27.2082 7.51998 27.0002 7.11373C26.7922 6.70749 26.2882 6.54818 25.8802 6.75528C25.4722 6.96239 25.3122 7.45626 25.5122 7.8625C25.7282 8.26875 26.2242 8.43603 26.6402 8.22892Z" fill="#040617"/>
<path d="M21.52 8.86617C20.936 9.16089 20.696 9.86983 20.992 10.4513C21.288 11.0328 22 11.2718 22.584 10.9771C23.168 10.6823 23.408 9.97338 23.112 9.3919C22.816 8.81041 22.104 8.5794 21.52 8.86617Z" fill="#040617"/>
<path d="M14.9199 1.85643C15.376 1.88033 15.768 1.52984 15.8 1.0758C15.832 0.621765 15.472 0.23145 15.0159 0.199588C14.5599 0.175691 14.1679 0.518212 14.1359 0.972252C14.1119 1.43426 14.4639 1.82457 14.9199 1.85643Z" fill="#040617"/>
<path d="M14.9118 7.05797C15.5678 7.0978 16.1278 6.59596 16.1598 5.94278C16.1998 5.2896 15.6958 4.73201 15.0398 4.70015C14.3838 4.66032 13.8237 5.16215 13.7917 5.81533C13.7597 6.46851 14.2558 7.02611 14.9118 7.05797Z" fill="#040617"/>
<path d="M8.47977 19.1338C9.06378 18.8391 9.30379 18.1302 9.00778 17.5487C8.71177 16.9672 7.99975 16.7282 7.41573 17.0229C6.83172 17.3177 6.59171 18.0266 6.88772 18.6081C7.18373 19.1896 7.89575 19.4286 8.47977 19.1338Z" fill="#040617"/>
<path d="M15.68 8.78652C15.072 9.71849 15.328 10.9611 16.264 11.5665C17.2 12.1719 18.4481 11.917 19.0561 10.985C19.6641 10.053 19.4081 8.81041 18.4721 8.20503C18.1441 7.98996 17.76 7.87844 17.368 7.87844C16.688 7.87844 16.056 8.22096 15.68 8.78652Z" fill="#040617"/>
<path d="M19.1919 17.1982C18.6879 16.2025 17.4719 15.8042 16.4798 16.306C15.4798 16.8079 15.0798 18.0186 15.5838 19.0064C16.0878 20.0021 17.3039 20.4004 18.2959 19.8985C19.2879 19.4047 19.6959 18.2098 19.1999 17.2141C19.1999 17.2061 19.1999 17.2061 19.1919 17.1982Z" fill="#040617"/>
<path d="M22.7203 17.0548C22.1683 16.6964 21.4323 16.8477 21.0803 17.3973C20.7203 17.947 20.8723 18.6798 21.4243 19.0303C21.9763 19.3887 22.7123 19.2374 23.0643 18.6878C23.4243 18.1461 23.2723 17.4133 22.7203 17.0548Z" fill="#040617"/>
<path d="M26.5922 14.0359C26.6242 13.4783 26.2002 13.0083 25.6402 12.9764C25.0802 12.9446 24.6082 13.3667 24.5762 13.9243C24.5442 14.4819 24.9682 14.9519 25.5282 14.9838C26.0802 15.0156 26.5602 14.5855 26.5922 14.0359Z" fill="#040617"/>
<path d="M29.3842 13.3189C29.0242 13.2951 28.7122 13.5738 28.6962 13.9323C28.6802 14.2908 28.9522 14.6014 29.3122 14.6173C29.6723 14.6412 29.9763 14.3624 30.0003 14.004C30.0163 13.6455 29.7443 13.3428 29.3842 13.3189Z" fill="#040617"/>
<path d="M26.7522 19.7711C26.3682 19.5241 25.8562 19.6277 25.6002 20.0101C25.3522 20.3924 25.4562 20.9022 25.8402 21.1571C26.2242 21.404 26.7362 21.3005 26.9922 20.9181C27.2482 20.5358 27.1362 20.018 26.7522 19.7711Z" fill="#040617"/>
<path d="M8.20762 25.8409C7.90361 25.6417 7.50359 25.7294 7.30359 26.0241C7.10358 26.3268 7.19158 26.7251 7.48759 26.9242C7.7916 27.1233 8.19161 27.0357 8.39162 26.741C8.59963 26.4463 8.51162 26.04 8.20762 25.8409Z" fill="#040617"/>
<path d="M21.9043 25.7771C21.5842 25.9365 21.4562 26.3347 21.6162 26.6534C21.7763 26.972 22.1763 27.0994 22.4963 26.9401C22.8163 26.7808 22.9443 26.3905 22.7843 26.0719C22.6243 25.7453 22.2323 25.6099 21.9043 25.7771Z" fill="#040617"/>
<path d="M14.3201 19.2135C14.9281 18.2815 14.6721 17.0389 13.736 16.4255C12.8 15.8201 11.552 16.075 10.936 17.007C10.3199 17.939 10.5839 19.1816 11.52 19.795C11.848 20.01 12.232 20.1216 12.624 20.1216C13.312 20.1295 13.944 19.787 14.3201 19.2135Z" fill="#040617"/>
<path d="M10.2795 22.2962C9.81552 21.9935 9.18351 22.1209 8.8795 22.5829C8.57549 23.045 8.70349 23.6742 9.16751 23.9769C9.63152 24.2796 10.2635 24.1522 10.5675 23.6902C10.8796 23.2282 10.7516 22.5989 10.2795 22.2962Z" fill="#040617"/>
<path d="M14.9919 26.1436C14.5359 26.1197 14.1438 26.4702 14.1118 26.9242C14.0798 27.3782 14.4399 27.7685 14.8959 27.8004C15.3519 27.8243 15.7439 27.4818 15.7759 27.0277C15.7999 26.5657 15.4479 26.1754 14.9919 26.1436Z" fill="#040617"/>
<path d="M15 20.942C14.344 20.9022 13.784 21.404 13.752 22.0572C13.712 22.7104 14.216 23.268 14.872 23.2998C15.528 23.3317 16.0881 22.8378 16.1201 22.1847C16.1601 21.5394 15.656 20.9739 15 20.942Z" fill="#040617"/>
<path d="M19.8561 22.2165C19.3601 22.4714 19.1601 23.0768 19.4161 23.5707C19.6721 24.0645 20.2801 24.2637 20.7761 24.0088C21.2721 23.7618 21.4721 23.1565 21.2241 22.6626C20.9681 22.1687 20.3601 21.9616 19.8561 22.2165Z" fill="#040617"/>
</svg>
