<svg width="1898" height="846" viewBox="0 0 1898 846" fill="none" xmlns="http://www.w3.org/2000/svg">
<path d="M-166 181.603C804.647 99.2291 1271.72 313.271 2064 674.039" stroke="#5A0372"/>
<path d="M-166 2.73023C535.023 -22.6026 1335.92 230.567 2064 741.603" stroke="#151F88" stroke-width="2"/>
<g opacity="0.9" filter="url(#filter0_fg_35_405)">
<path d="M1411.88 419.244C1773.72 431.552 1937.85 499.624 2020.63 534.313L2011.99 775.167L-105.834 461.981C-172.398 375.34 -168.212 307.711 -98.9712 270.555C-29.7299 233.399 216.392 215.91 570.976 320.184C816.589 392.412 1028.46 406.202 1411.88 419.244Z" fill="url(#paint0_linear_35_405)"/>
<path d="M502.045 419.244C140.208 431.552 -23.9254 499.623 -106.701 534.312L-98.0661 775.167L2019.76 461.981C2094.89 320.183 2012.9 270.554 2012.9 270.554C1965.23 231.405 1689.66 202.907 1342.95 320.184C1102.17 401.626 885.471 406.202 502.045 419.244Z" fill="url(#paint1_linear_35_405)"/>
</g>
<defs>
<filter id="filter0_fg_35_405" x="-223.414" y="166.436" width="2344.87" height="678.731" filterUnits="userSpaceOnUse" color-interpolation-filters="sRGB">
<feFlood flood-opacity="0" result="BackgroundImageFix"/>
<feBlend mode="normal" in="SourceGraphic" in2="BackgroundImageFix" result="shape"/>
<feGaussianBlur stdDeviation="35" result="effect1_foregroundBlur_35_405"/>
<feTurbulence type="fractalNoise" baseFrequency="2 2" numOctaves="3" seed="5125" />
<feDisplacementMap in="effect1_foregroundBlur_35_405" scale="16" xChannelSelector="R" yChannelSelector="G" result="displacedImage" width="100%" height="100%" />
<feMerge result="effect2_texture_35_405">
<feMergeNode in="displacedImage"/>
</feMerge>
</filter>
<linearGradient id="paint0_linear_35_405" x1="962.443" y1="357.404" x2="942.926" y2="571.031" gradientUnits="userSpaceOnUse">
<stop stop-color="#4758FF"/>
<stop offset="0.557692" stop-color="#4758FF" stop-opacity="0"/>
</linearGradient>
<linearGradient id="paint1_linear_35_405" x1="971.139" y1="351.095" x2="989.521" y2="619.303" gradientUnits="userSpaceOnUse">
<stop stop-color="#DB58FF"/>
<stop offset="0.546017" stop-color="#540397" stop-opacity="0"/>
</linearGradient>
</defs>
</svg>
