<svg width="39" height="39" viewBox="0 0 39 39" fill="none" xmlns="http://www.w3.org/2000/svg">
<path fill-rule="evenodd" clip-rule="evenodd" d="M5.1211 4.95961C10.816 -0.735307 20.0492 -0.735307 25.7439 4.95961C28.563 7.77848 31.6177 10.8332 34.4366 13.6521C40.1315 19.347 40.1315 28.5802 34.4366 34.2751L34.4363 34.2753C28.7416 39.97 19.5085 39.97 13.8135 34.2753C10.9947 31.4562 7.93996 28.4015 5.12088 25.5826C-0.573823 19.8877 -0.573823 10.6545 5.12088 4.95983L5.1211 4.95961Z" fill="#4758FF"/>
<path fill-rule="evenodd" clip-rule="evenodd" d="M20.092 1.44951C24.9536 0.155859 30.3537 1.41576 34.167 5.22921C37.9804 9.04245 39.2403 14.4424 37.9467 19.3042C37.2522 17.2387 36.0822 15.2977 34.4366 13.6521L25.7439 4.9596C24.0985 3.31399 22.1575 2.14396 20.092 1.44951Z" fill="#9400FF"/>
<path fill-rule="evenodd" clip-rule="evenodd" d="M19.4657 37.7854C14.6039 39.079 9.20395 37.8191 5.3905 34.0057C1.57704 30.1922 0.317141 24.7923 1.6108 19.9305C2.30546 21.9962 3.47549 23.9372 5.12089 25.5826L13.8135 34.2753C15.4589 35.9207 17.4 37.0907 19.4657 37.7854Z" fill="#9400FF"/>
<path fill-rule="evenodd" clip-rule="evenodd" d="M1.61078 19.9305C2.24911 17.5319 3.50901 15.2641 5.39048 13.3827L13.5439 5.229C15.4256 3.34753 17.6932 2.08763 20.092 1.44951C22.1575 2.14396 24.0985 3.31399 25.7439 4.9596L34.4365 13.6521C36.0822 15.2977 37.2522 17.2387 37.9466 19.3042C37.3083 21.7029 36.0486 23.9705 34.1672 25.852L26.0135 34.0057C24.132 35.8871 21.8642 37.147 19.4657 37.7854C17.4 37.0907 15.4589 35.9207 13.8135 34.2753L5.12087 25.5826C3.47547 23.9372 2.30544 21.9962 1.61078 19.9305Z" fill="#DB58FF"/>
<path d="M19.7787 29.7588C25.3796 29.7588 29.9201 25.2184 29.9201 19.6174C29.9201 14.0165 25.3796 9.47611 19.7787 9.47611C14.1778 9.47611 9.63739 14.0165 9.63739 19.6174C9.63739 25.2184 14.1778 29.7588 19.7787 29.7588Z" fill="white"/>
<path fill-rule="evenodd" clip-rule="evenodd" d="M19.7787 7.64861C26.3846 7.64861 31.7476 13.0116 31.7476 19.6174C31.7476 26.2231 26.3846 31.5861 19.7787 31.5861C13.1731 31.5861 7.81012 26.2231 7.81012 19.6174C7.81012 13.0116 13.1731 7.64861 19.7787 7.64861ZM19.7787 11.3036C15.1902 11.3036 11.4651 15.0289 11.4651 19.6174C11.4651 24.206 15.1902 27.9311 19.7787 27.9311C24.3673 27.9311 28.0926 24.206 28.0926 19.6174C28.0926 15.0289 24.3673 11.3036 19.7787 11.3036Z" fill="black"/>
<path fill-rule="evenodd" clip-rule="evenodd" d="M19.7787 7.64861C26.3846 7.64861 31.7476 13.0116 31.7476 19.6174C31.7476 26.2231 26.3846 31.5861 19.7787 31.5861C13.1731 31.5861 7.81012 26.2231 7.81012 19.6174C7.81012 13.0116 13.1731 7.64861 19.7787 7.64861ZM19.7787 11.3036C15.1902 11.3036 11.4651 15.0289 11.4651 19.6174C11.4651 24.206 15.1902 27.9311 19.7787 27.9311C24.3673 27.9311 28.0926 24.206 28.0926 19.6174C28.0926 15.0289 24.3673 11.3036 19.7787 11.3036Z" fill="black"/>
</svg>
