<svg width="172" height="40" viewBox="0 0 172 40" fill="none" xmlns="http://www.w3.org/2000/svg">
<path d="M71.3398 7.7129V29.538C71.3398 31.3123 70.4526 32.1995 68.6782 32.1995H65.7327C64.9284 32.1995 64.3309 32.0102 63.9406 31.6317C63.5502 31.2533 63.154 30.6972 62.7517 29.9638L57.4286 21.5532C57.0973 20.938 56.7956 20.2698 56.5236 19.5481C56.2516 18.8265 56.009 18.099 55.7961 17.3656H55.5477C55.666 18.099 55.7548 18.8502 55.8139 19.6191C55.8729 20.3879 55.9026 21.1273 55.9026 21.8371V32.1995H48.805V10.3745C48.805 8.6001 49.6922 7.7129 51.4666 7.7129H54.4121C55.2164 7.7129 55.808 7.90223 56.1865 8.2807C56.565 8.65918 56.9672 9.21528 57.3931 9.94864L62.5033 17.9689C62.8346 18.5603 63.1598 19.211 63.4792 19.9207C63.7986 20.6305 64.1003 21.3757 64.3842 22.1565H64.6326C64.538 21.3993 64.461 20.6541 64.4019 19.9207C64.3428 19.1874 64.3132 18.4538 64.3132 17.7205L64.2777 7.7129H71.3398Z" fill="white"/>
<path d="M89.829 7.7129C90.4441 7.7129 90.9882 7.89034 91.4614 8.24522C91.9346 8.6001 92.254 9.08504 92.4196 9.70022L98.7719 32.1995H90.9291L87.2383 16.2655C87.1438 15.816 87.0609 15.3487 86.9899 14.8637C86.919 14.3788 86.8599 13.9114 86.8125 13.4619H85.8543C85.8069 13.9114 85.7479 14.3788 85.6769 14.8637C85.6059 15.3487 85.523 15.816 85.4285 16.2655L81.7377 32.1995H73.8949L80.2472 9.70022C80.4128 9.08504 80.7322 8.6001 81.2054 8.24522C81.6786 7.89034 82.2227 7.7129 82.8378 7.7129H89.829ZM92.8454 21.5177V26.9118H79.8214V21.5177H92.8454Z" fill="white"/>
<path d="M112.293 7.42899C114.564 7.42899 116.374 7.61229 117.722 7.97906C119.071 8.34582 120.041 8.99046 120.632 9.91315C121.224 10.8358 121.52 12.137 121.52 13.8168C121.52 15.5676 121.177 16.8984 120.491 17.8092C119.804 18.72 118.657 19.2465 117.048 19.3884V19.6013C119.012 19.7669 120.384 20.3998 121.165 21.4999C121.946 22.6001 122.336 24.1319 122.336 26.0956C122.336 27.7754 122.022 29.0766 121.395 29.9993C120.769 30.922 119.804 31.5666 118.503 31.9334C117.202 32.3001 115.522 32.4834 113.464 32.4834C111.713 32.4834 110.169 32.4776 108.833 32.4657C107.496 32.4538 106.266 32.4244 105.142 32.377C104.018 32.3296 102.877 32.2705 101.717 32.1995L102.285 27.1603C102.9 27.1839 104.095 27.2076 105.869 27.2312C107.644 27.2548 109.714 27.2667 112.08 27.2667C112.79 27.2667 113.334 27.1957 113.712 27.0538C114.091 26.9118 114.345 26.6398 114.475 26.2376C114.605 25.8353 114.67 25.2675 114.67 24.5342C114.67 23.777 114.6 23.1975 114.458 22.7952C114.316 22.393 114.061 22.121 113.695 21.979C113.328 21.8371 112.778 21.7661 112.044 21.7661H102.25V17.2591H111.973C112.565 17.2591 113.02 17.2001 113.34 17.0817C113.659 16.9633 113.878 16.7327 113.996 16.3897C114.115 16.0467 114.174 15.5557 114.174 14.9169C114.174 14.2782 114.115 13.7991 113.996 13.4797C113.878 13.1603 113.653 12.9415 113.322 12.8232C112.991 12.7048 112.518 12.6457 111.902 12.6457C110.412 12.6457 109.111 12.6399 107.999 12.628C106.887 12.6161 105.881 12.6161 104.982 12.628C104.083 12.6399 103.184 12.6812 102.285 12.7522L101.717 7.7129C102.782 7.61832 103.823 7.5532 104.84 7.51771C105.858 7.48223 106.964 7.45863 108.158 7.44674C109.353 7.43485 110.731 7.42899 112.293 7.42899ZM109.241 7.7129V32.1995H101.717V7.7129H109.241Z" fill="white"/>
<path d="M147 7.7129V22.0855C147 24.688 146.663 26.764 145.989 28.3136C145.314 29.8632 144.214 30.9811 142.688 31.6672C141.162 32.3534 139.122 32.6964 136.567 32.6964C133.798 32.6964 131.592 32.3534 129.948 31.6672C128.304 30.9811 127.121 29.8632 126.399 28.3136C125.678 26.764 125.317 24.688 125.317 22.0855V7.7129H133.018V22.0855C133.018 23.3867 133.106 24.3922 133.284 25.102C133.461 25.8117 133.781 26.3027 134.242 26.5747C134.703 26.8467 135.348 26.9828 136.176 26.9828C137.004 26.9828 137.643 26.8467 138.093 26.5747C138.542 26.3027 138.856 25.8117 139.033 25.102C139.21 24.3922 139.299 23.3867 139.299 22.0855V7.7129H147Z" fill="white"/>
<path fill-rule="evenodd" clip-rule="evenodd" d="M5.1211 4.95961C10.816 -0.735307 20.0492 -0.735307 25.7439 4.95961C28.563 7.77848 31.6177 10.8332 34.4366 13.6521C40.1315 19.347 40.1315 28.5802 34.4366 34.2751L34.4363 34.2753C28.7416 39.97 19.5085 39.97 13.8135 34.2753C10.9947 31.4562 7.93996 28.4015 5.12088 25.5826C-0.573823 19.8877 -0.573823 10.6545 5.12088 4.95983L5.1211 4.95961Z" fill="#4758FF"/>
<path fill-rule="evenodd" clip-rule="evenodd" d="M20.092 1.44951C24.9536 0.155859 30.3537 1.41576 34.167 5.22921C37.9804 9.04245 39.2403 14.4424 37.9467 19.3042C37.2522 17.2387 36.0822 15.2977 34.4366 13.6521L25.7439 4.9596C24.0985 3.31399 22.1575 2.14396 20.092 1.44951Z" fill="#9400FF"/>
<path fill-rule="evenodd" clip-rule="evenodd" d="M19.4657 37.7854C14.6039 39.079 9.20395 37.8191 5.3905 34.0057C1.57704 30.1922 0.317141 24.7923 1.6108 19.9305C2.30546 21.9962 3.47549 23.9372 5.12089 25.5826L13.8135 34.2753C15.4589 35.9207 17.4 37.0907 19.4657 37.7854Z" fill="#9400FF"/>
<path fill-rule="evenodd" clip-rule="evenodd" d="M1.61078 19.9305C2.24911 17.5319 3.50901 15.2641 5.39048 13.3827L13.5439 5.229C15.4256 3.34753 17.6932 2.08763 20.092 1.44951C22.1575 2.14396 24.0985 3.31399 25.7439 4.9596L34.4365 13.6521C36.0822 15.2977 37.2522 17.2387 37.9466 19.3042C37.3083 21.7029 36.0486 23.9705 34.1672 25.852L26.0135 34.0057C24.132 35.8871 21.8642 37.147 19.4657 37.7854C17.4 37.0907 15.4589 35.9207 13.8135 34.2753L5.12087 25.5826C3.47547 23.9372 2.30544 21.9962 1.61078 19.9305Z" fill="#DB58FF"/>
<path d="M19.7787 29.7588C25.3796 29.7588 29.9201 25.2184 29.9201 19.6174C29.9201 14.0165 25.3796 9.47611 19.7787 9.47611C14.1778 9.47611 9.63739 14.0165 9.63739 19.6174C9.63739 25.2184 14.1778 29.7588 19.7787 29.7588Z" fill="white"/>
<path fill-rule="evenodd" clip-rule="evenodd" d="M19.7787 7.64861C26.3846 7.64861 31.7476 13.0116 31.7476 19.6174C31.7476 26.2231 26.3846 31.5861 19.7787 31.5861C13.1731 31.5861 7.81012 26.2231 7.81012 19.6174C7.81012 13.0116 13.1731 7.64861 19.7787 7.64861ZM19.7787 11.3036C15.1902 11.3036 11.4651 15.0289 11.4651 19.6174C11.4651 24.206 15.1902 27.9311 19.7787 27.9311C24.3673 27.9311 28.0926 24.206 28.0926 19.6174C28.0926 15.0289 24.3673 11.3036 19.7787 11.3036Z" fill="black"/>
<path fill-rule="evenodd" clip-rule="evenodd" d="M19.7787 7.64861C26.3846 7.64861 31.7476 13.0116 31.7476 19.6174C31.7476 26.2231 26.3846 31.5861 19.7787 31.5861C13.1731 31.5861 7.81012 26.2231 7.81012 19.6174C7.81012 13.0116 13.1731 7.64861 19.7787 7.64861ZM19.7787 11.3036C15.1902 11.3036 11.4651 15.0289 11.4651 19.6174C11.4651 24.206 15.1902 27.9311 19.7787 27.9311C24.3673 27.9311 28.0926 24.206 28.0926 19.6174C28.0926 15.0289 24.3673 11.3036 19.7787 11.3036Z" fill="black"/>
</svg>
