<svg width="26" height="32" viewBox="0 0 26 32" fill="none" xmlns="http://www.w3.org/2000/svg">
<path d="M10.4698 2.31995H15.9418" stroke="#040617" stroke-width="2.736" stroke-linecap="round" stroke-linejoin="round"/>
<path d="M13.2058 18.7359V13.2639" stroke="#040617" stroke-width="2.736" stroke-linecap="round" stroke-linejoin="round"/>
<path d="M2.26178 17.368C2.59675 14.7085 3.89607 12.2645 5.91331 10.4994C7.93055 8.73434 10.5254 7.77095 13.2058 7.79196C14.976 7.79384 16.7194 8.22513 18.2864 9.04883C19.8533 9.87252 21.1971 11.064 22.2023 12.5212C23.2076 13.9783 23.8444 15.6575 24.0581 17.4149C24.2718 19.1722 24.056 20.9551 23.4293 22.6107C22.8025 24.2663 21.7835 25.7451 20.4596 26.9203C19.1357 28.0956 17.5465 28.9321 15.8283 29.3582C14.1101 29.7843 12.3142 29.7872 10.5946 29.3667C8.87499 28.9462 7.28307 28.1149 5.95538 26.944L2.26178 23.6608" stroke="#040617" stroke-width="2.736" stroke-linecap="round" stroke-linejoin="round"/>
<path d="M9.10178 22.84H2.26178V29.68" stroke="#040617" stroke-width="2.736" stroke-linecap="round" stroke-linejoin="round"/>
</svg>
