<svg width="33" height="33" viewBox="0 0 33 33" fill="none" xmlns="http://www.w3.org/2000/svg">
<path d="M16.2002 8.88006C18.2215 8.88006 19.8602 7.24142 19.8602 5.22006C19.8602 3.1987 18.2215 1.56006 16.2002 1.56006C14.1788 1.56006 12.5402 3.1987 12.5402 5.22006C12.5402 7.24142 14.1788 8.88006 16.2002 8.88006Z" stroke="#040617" stroke-width="2.928" stroke-linecap="round" stroke-linejoin="round"/>
<path d="M13.5648 7.85522L7.85522 13.5648" stroke="#040617" stroke-width="2.928" stroke-linecap="round" stroke-linejoin="round"/>
<path d="M5.22006 19.8602C7.24142 19.8602 8.88006 18.2215 8.88006 16.2002C8.88006 14.1788 7.24142 12.5402 5.22006 12.5402C3.1987 12.5402 1.56006 14.1788 1.56006 16.2002C1.56006 18.2215 3.1987 19.8602 5.22006 19.8602Z" stroke="#040617" stroke-width="2.928" stroke-linecap="round" stroke-linejoin="round"/>
<path d="M8.88 16.2001H23.52" stroke="#040617" stroke-width="2.928" stroke-linecap="round" stroke-linejoin="round"/>
<path d="M27.18 19.8602C29.2014 19.8602 30.84 18.2215 30.84 16.2002C30.84 14.1788 29.2014 12.5402 27.18 12.5402C25.1587 12.5402 23.52 14.1788 23.52 16.2002C23.52 18.2215 25.1587 19.8602 27.18 19.8602Z" stroke="#040617" stroke-width="2.928" stroke-linecap="round" stroke-linejoin="round"/>
<path d="M18.8353 24.5449L24.5449 18.8353" stroke="#040617" stroke-width="2.928" stroke-linecap="round" stroke-linejoin="round"/>
<path d="M16.2002 30.84C18.2215 30.84 19.8602 29.2014 19.8602 27.18C19.8602 25.1587 18.2215 23.52 16.2002 23.52C14.1788 23.52 12.5402 25.1587 12.5402 27.18C12.5402 29.2014 14.1788 30.84 16.2002 30.84Z" stroke="#040617" stroke-width="2.928" stroke-linecap="round" stroke-linejoin="round"/>
</svg>
