
<svg xmlns="http://www.w3.org/2000/svg" width="24" height="24" viewBox="0 0 24 24" fill="none">
<path d="M17.96 14.54H17.9723" stroke="#F2F2F2" stroke-width="2.28" stroke-linecap="round" stroke-linejoin="round"/>
<path d="M6.56 6.56H20.24C20.8447 6.56 21.4246 6.80021 21.8522 7.2278C22.2798 7.65538 22.52 8.23531 22.52 8.84V20.24C22.52 20.8447 22.2798 21.4246 21.8522 21.8522C21.4246 22.2798 20.8447 22.52 20.24 22.52H4.28C3.67531 22.52 3.09538 22.2798 2.6678 21.8522C2.24021 21.4246 2 20.8447 2 20.24V4.28C2 3.67531 2.24021 3.09538 2.6678 2.6678C3.09538 2.24021 3.67531 2 4.28 2H20.24" stroke="#F2F2F2" stroke-width="2.28" stroke-linecap="round" stroke-linejoin="round"/>
</svg>