<svg width="28" height="28" viewBox="0 0 28 28" fill="none" xmlns="http://www.w3.org/2000/svg">
<path d="M21.04 16.936H21.0549" stroke="#040617" stroke-width="2.736" stroke-linecap="round" stroke-linejoin="round"/>
<path d="M7.36 7.35994H23.776C24.5016 7.35994 25.1975 7.6482 25.7106 8.1613C26.2237 8.6744 26.512 9.37031 26.512 10.0959V23.7759C26.512 24.5016 26.2237 25.1975 25.7106 25.7106C25.1975 26.2237 24.5016 26.5119 23.776 26.5119H4.624C3.89837 26.5119 3.20246 26.2237 2.68936 25.7106C2.17626 25.1975 1.888 24.5016 1.888 23.7759V4.62394C1.888 3.89831 2.17626 3.20239 2.68936 2.6893C3.20246 2.1762 3.89837 1.88794 4.624 1.88794H23.776" stroke="#040617" stroke-width="2.736" stroke-linecap="round" stroke-linejoin="round"/>
</svg>
